<?xml version="1.0" encoding="UTF-8"?>
<svg id="Capa_2" data-name="Capa 2" xmlns="http://www.w3.org/2000/svg" viewBox="0 0 195.87 242.21">
  <defs>
    <style>
      .cls-1 {
        fill: #020873;
      }

      .cls-2 {
        fill: #f238b1;
      }
    </style>
  </defs>
  <g id="Capa_1-2" data-name="Capa 1">
    <g>
      <path class="cls-1" d="m192.1,242.21H49.42s0-37.7,0-37.7h142.68s0,37.7,0,37.7Z"/>
      <path class="cls-1" d="m120.76,190.59c-45.24,0-75.11-28.13-75.11-73.37,0-44.66,29.58-72.5,75.11-72.5,45.24,0,75.11,28.13,75.11,72.5,0,46.11-30.74,73.37-75.11,73.37Zm0-107.88c-29,0-43.21,11.6-43.21,34.51,0,22.91,14.21,34.51,43.21,34.51s43.5-11.6,43.5-34.51c0-22.91-14.5-34.51-43.5-34.51Z"/>
      <circle class="cls-1" cx="19" cy="223" r="19"/>
      <circle class="cls-2" cx="174" cy="19" r="19"/>
    </g>
  </g>
</svg>