<svg xmlns="http://www.w3.org/2000/svg" xmlns:xlink="http://www.w3.org/1999/xlink" width="150" zoomAndPan="magnify" viewBox="0 0 112.5 37.5" height="50" preserveAspectRatio="xMidYMid meet" version="1.0"><defs><g/><clipPath id="id1"><path d="M 0.492188 0 L 111.511719 0 L 111.511719 37.007812 L 0.492188 37.007812 Z M 0.492188 0 " clip-rule="nonzero"/></clipPath><clipPath id="id2"><path d="M 95 8 L 111.511719 8 L 111.511719 29 L 95 29 Z M 95 8 " clip-rule="nonzero"/></clipPath></defs><g clip-path="url(#id1)"><path fill="rgb(100%, 100%, 100%)" d="M 0.492188 0 L 112.007812 0 L 112.007812 43.863281 L 0.492188 43.863281 Z M 0.492188 0 " fill-opacity="1" fill-rule="nonzero"/><path fill="rgb(100%, 100%, 100%)" d="M 0.492188 0 L 112.007812 0 L 112.007812 37.171875 L 0.492188 37.171875 Z M 0.492188 0 " fill-opacity="1" fill-rule="nonzero"/><path fill="rgb(100%, 100%, 100%)" d="M 0.492188 0 L 112.007812 0 L 112.007812 37.171875 L 0.492188 37.171875 Z M 0.492188 0 " fill-opacity="1" fill-rule="nonzero"/><path fill="rgb(100%, 100%, 100%)" d="M 0.492188 0 L 112.007812 0 L 112.007812 37.171875 L 0.492188 37.171875 Z M 0.492188 0 " fill-opacity="1" fill-rule="nonzero"/></g><g fill="rgb(0%, 0%, 0%)" fill-opacity="1"><g transform="translate(0.459048, 28.88088)"><g><path d="M 14.84375 0 L 14.84375 -10.375 L 8.703125 -10.375 L 8.703125 0 L 2.8125 0 L 2.8125 -10.375 L 0.71875 -10.375 L 0.71875 -12.390625 L 2.796875 -12.390625 L 2.796875 -19.9375 L 8.671875 -19.9375 L 8.671875 -12.390625 L 14.8125 -12.390625 L 14.8125 -19.9375 L 16.859375 -19.9375 L 16.859375 0 Z M 14.84375 0 "/></g></g></g><g fill="rgb(0%, 0%, 0%)" fill-opacity="1"><g transform="translate(18.030437, 28.88088)"><g><path d="M 0.71875 0 L 0.71875 -19.9375 L 6.640625 -19.9375 L 6.640625 0 Z M 0.71875 0 "/></g></g></g><g fill="rgb(0%, 0%, 0%)" fill-opacity="1"><g transform="translate(25.393934, 28.88088)"><g><path d="M 14.359375 -15.078125 C 14.359375 -14.398438 14.226562 -13.773438 13.96875 -13.203125 C 13.71875 -12.640625 13.375 -12.144531 12.9375 -11.71875 C 12.5 -11.300781 11.984375 -10.972656 11.390625 -10.734375 C 10.796875 -10.492188 10.171875 -10.375 9.515625 -10.375 L 5.953125 -10.375 L 5.953125 0.03125 L 0.71875 0.03125 L 0.71875 -19.9375 L 9.515625 -19.9375 C 10.171875 -19.9375 10.796875 -19.804688 11.390625 -19.546875 C 11.984375 -19.296875 12.5 -18.945312 12.9375 -18.5 C 13.375 -18.0625 13.71875 -17.546875 13.96875 -16.953125 C 14.226562 -16.359375 14.359375 -15.734375 14.359375 -15.078125 Z M 12.34375 -15.078125 C 12.34375 -15.460938 12.265625 -15.828125 12.109375 -16.171875 C 11.960938 -16.523438 11.765625 -16.828125 11.515625 -17.078125 C 11.265625 -17.335938 10.96875 -17.539062 10.625 -17.6875 C 10.28125 -17.84375 9.910156 -17.921875 9.515625 -17.921875 L 5.953125 -17.921875 L 5.953125 -12.390625 L 9.515625 -12.390625 C 10.316406 -12.390625 10.988281 -12.640625 11.53125 -13.140625 C 12.070312 -13.648438 12.34375 -14.296875 12.34375 -15.078125 Z M 12.34375 -15.078125 "/></g></g></g><g fill="rgb(0%, 0%, 0%)" fill-opacity="1"><g transform="translate(40.466517, 28.88088)"><g><path d="M 12.65625 0 L 2.734375 -15.34375 L 2.734375 0 L 0.71875 0 L 0.71875 -19.9375 L 6.78125 -19.9375 L 14.28125 -8.328125 L 14.28125 -19.9375 L 16.328125 -19.9375 L 16.328125 0 Z M 12.65625 0 "/></g></g></g><g fill="rgb(0%, 0%, 0%)" fill-opacity="1"><g transform="translate(57.506259, 28.88088)"><g><path d="M 17.265625 -11.9375 C 17.265625 -10.800781 17.046875 -9.734375 16.609375 -8.734375 C 16.171875 -7.734375 15.578125 -6.851562 14.828125 -6.09375 C 14.078125 -5.34375 13.195312 -4.75 12.1875 -4.3125 C 11.1875 -3.882812 10.117188 -3.671875 8.984375 -3.671875 C 7.847656 -3.671875 6.78125 -3.882812 5.78125 -4.3125 C 4.78125 -4.75 3.898438 -5.34375 3.140625 -6.09375 C 2.390625 -6.851562 1.796875 -7.734375 1.359375 -8.734375 C 0.929688 -9.734375 0.71875 -10.800781 0.71875 -11.9375 C 0.71875 -13.070312 0.929688 -14.140625 1.359375 -15.140625 C 1.796875 -16.140625 2.382812 -17.007812 3.125 -17.75 C 3.875 -18.5 4.75 -19.09375 5.75 -19.53125 C 6.757812 -19.96875 7.832031 -20.1875 8.96875 -20.1875 C 10.101562 -20.1875 11.175781 -19.96875 12.1875 -19.53125 C 13.195312 -19.09375 14.078125 -18.5 14.828125 -17.75 C 15.578125 -17.007812 16.171875 -16.140625 16.609375 -15.140625 C 17.046875 -14.140625 17.265625 -13.070312 17.265625 -11.9375 Z M 1.46875 0 L 1.46875 -3.171875 L 16.515625 -3.171875 L 16.515625 0 Z M 15.234375 -11.9375 C 15.234375 -12.789062 15.066406 -13.597656 14.734375 -14.359375 C 14.410156 -15.117188 13.960938 -15.773438 13.390625 -16.328125 C 12.828125 -16.890625 12.164062 -17.332031 11.40625 -17.65625 C 10.644531 -17.988281 9.835938 -18.15625 8.984375 -18.15625 C 8.296875 -18.15625 7.597656 -18.035156 6.890625 -17.796875 L 6.890625 -6.0625 C 7.578125 -5.8125 8.269531 -5.6875 8.96875 -5.6875 C 9.8125 -5.6875 10.613281 -5.847656 11.375 -6.171875 C 12.144531 -6.503906 12.816406 -6.953125 13.390625 -7.515625 C 13.960938 -8.085938 14.410156 -8.753906 14.734375 -9.515625 C 15.066406 -10.285156 15.234375 -11.09375 15.234375 -11.9375 Z M 15.234375 -11.9375 "/></g></g></g><g fill="rgb(0%, 0%, 0%)" fill-opacity="1"><g transform="translate(75.476394, 28.88088)"><g><path d="M 9.921875 -17.28125 C 9.117188 -17.925781 8.195312 -18.25 7.15625 -18.25 C 6.570312 -18.25 6.015625 -18.128906 5.484375 -17.890625 C 4.953125 -17.660156 4.488281 -17.351562 4.09375 -16.96875 L 9.734375 -10.34375 C 10.191406 -9.78125 10.550781 -9.140625 10.8125 -8.421875 C 11.070312 -7.710938 11.203125 -6.988281 11.203125 -6.25 C 11.203125 -5.394531 11.035156 -4.578125 10.703125 -3.796875 C 10.378906 -3.015625 9.925781 -2.320312 9.34375 -1.71875 C 8.769531 -1.125 8.082031 -0.648438 7.28125 -0.296875 C 6.488281 0.0546875 5.628906 0.234375 4.703125 0.234375 C 3.785156 0.234375 2.925781 0.0507812 2.125 -0.3125 L 2.71875 -2.34375 C 3.019531 -2.164062 3.34375 -2.035156 3.6875 -1.953125 C 4.03125 -1.867188 4.378906 -1.828125 4.734375 -1.828125 C 5.359375 -1.828125 5.9375 -1.9375 6.46875 -2.15625 C 7 -2.382812 7.457031 -2.703125 7.84375 -3.109375 L 2.203125 -9.734375 C 1.722656 -10.296875 1.351562 -10.9375 1.09375 -11.65625 C 0.84375 -12.375 0.71875 -13.085938 0.71875 -13.796875 C 0.71875 -14.628906 0.875 -15.4375 1.1875 -16.21875 C 1.507812 -17 1.957031 -17.691406 2.53125 -18.296875 C 3.113281 -18.898438 3.796875 -19.382812 4.578125 -19.75 C 5.359375 -20.113281 6.21875 -20.296875 7.15625 -20.296875 C 8.664062 -20.296875 10.015625 -19.832031 11.203125 -18.90625 Z M 9.921875 -17.28125 "/></g></g></g><g fill="rgb(0%, 0%, 0%)" fill-opacity="1"><g transform="translate(87.385602, 28.88088)"><g><path d="M 0.71875 0 L 0.71875 -19.9375 L 6.640625 -19.9375 L 6.640625 0 Z M 0.71875 0 "/></g></g></g><g clip-path="url(#id2)"><g fill="rgb(0%, 0%, 0%)" fill-opacity="1"><g transform="translate(94.749099, 28.88088)"><g><path d="M 10.609375 0 L 10.609375 -10.375 L 4.734375 -10.375 L 4.734375 0 L 2.71875 0 L 2.71875 -10.375 L 0.71875 -10.375 L 0.71875 -12.390625 L 2.6875 -12.390625 L 2.6875 -13.296875 C 2.6875 -14.253906 2.867188 -15.148438 3.234375 -15.984375 C 3.597656 -16.816406 4.09375 -17.546875 4.71875 -18.171875 C 5.351562 -18.804688 6.085938 -19.304688 6.921875 -19.671875 C 7.753906 -20.035156 8.644531 -20.21875 9.59375 -20.21875 C 10.550781 -20.21875 11.453125 -20.035156 12.296875 -19.671875 C 13.140625 -19.304688 13.875 -18.804688 14.5 -18.171875 C 15.132812 -17.546875 15.632812 -16.816406 16 -15.984375 C 16.375 -15.148438 16.5625 -14.253906 16.5625 -13.296875 L 16.5625 0 Z M 10.609375 -18.078125 C 10.453125 -18.117188 10.289062 -18.144531 10.125 -18.15625 C 9.96875 -18.175781 9.800781 -18.1875 9.625 -18.1875 C 8.945312 -18.1875 8.3125 -18.054688 7.71875 -17.796875 C 7.125 -17.546875 6.601562 -17.195312 6.15625 -16.75 C 5.707031 -16.3125 5.351562 -15.796875 5.09375 -15.203125 C 4.832031 -14.609375 4.703125 -13.972656 4.703125 -13.296875 L 4.703125 -12.390625 L 10.609375 -12.390625 Z M 10.609375 -18.078125 "/></g></g></g></g></svg>