<?xml version="1.0" encoding="UTF-8"?>
<svg id="Capa_2" data-name="Capa 2" xmlns="http://www.w3.org/2000/svg" viewBox="0 0 1080.3 260.12">
  <defs>
    <style>
      .cls-1 {
        fill: #020873;
      }

      .cls-2 {
        fill: #f238b1;
      }
    </style>
  </defs>
  <g id="Capa_1-2" data-name="Capa 1">
    <path class="cls-1" d="m0,192.56V0h40.31v192.56H0Z"/>
    <path class="cls-1" d="m222.42,192.56v-86.42c0-17.11-8.99-29.29-22.33-29.29s-24.07,13.05-24.07,30.45v85.26h-37.7v-85.84c0-22.91-6.09-28.71-22.62-28.71-15.08,0-22.91,9.28-22.91,27.84v86.71h-37.7V49.88h35.38v20.88c9.57-18.85,22.91-24.65,41.76-24.65s28.71,6.09,39.73,22.62c7.83-15.66,20.59-22.62,38.57-22.62,28.71,0,48.72,20.88,48.72,47.56v98.89h-36.83Z"/>
    <path class="cls-1" d="m273.76,260.12V49.88h36.25l.29,17.4c8.99-14.5,22.33-21.17,39.73-21.17,35.96,0,61.77,28.42,61.77,76.56,0,43.21-21.75,73.66-58.58,73.66-17.69,0-31.61-7.25-42.34-22.33v86.13h-37.12Zm99.76-140.07c0-25.52-13.34-43.21-32.19-43.21s-31.9,16.82-31.9,40.89c0,31.03,10.73,46.4,31.61,46.4,22.04,0,32.48-14.79,32.48-44.08Z"/>
    <path class="cls-1" d="m514.74,192.56c-1.16-3.48-2.03-8.41-2.32-12.76-8.99,9.86-24.07,16.53-43.21,16.53-32.48,0-47.56-15.95-47.56-39.15,0-41.18,27.55-45.82,65.54-51.04,18.85-2.61,24.07-6.38,24.07-16.24,0-9.28-9.28-14.79-24.07-14.79-17.11,0-24.07,8.41-25.81,21.17h-35.09c.58-29.58,16.82-50.17,62.64-50.17s60.9,20.3,60.9,56.26v90.19h-35.09Zm-2.61-69.89c-3.77,3.77-10.44,5.8-24.36,8.41-21.46,4.06-28.42,10.15-28.42,22.33,0,10.73,6.38,15.95,18.27,15.95,19.43,0,33.93-14.21,34.22-31.03l.29-15.66Z"/>
    <path class="cls-1" d="m694.83,140.94c-4.06,33.06-31.03,55.39-65.54,55.39-38.86,0-65.54-25.81-65.54-76.85s26.68-73.37,66.7-73.37c37.12,0,62.35,21.17,64.67,54.81h-37.99c-2.03-14.79-12.76-23.49-26.97-23.49-15.95,0-29,10.15-29,41.18s13.05,46.11,27.84,46.11,26.39-8.41,27.84-23.78h37.99Z"/>
    <path class="cls-1" d="m786.76,98.6h35.09v40.6c0,30.16-17.4,57.13-57.71,57.13s-58.29-26.68-58.29-57.42V11.31h37.12v38.57h78.88v26.68h-78.88v58.58c0,17.98,6.38,28.42,21.75,28.42s22.04-10.15,22.04-27.84v-37.12Z"/>
    <path class="cls-1" d="m838.09,192.56V49.88h37.7v142.68h-37.7Z"/>
    <path class="cls-1" d="m889.7,121.22c0-45.24,28.13-75.11,73.37-75.11s72.5,29.58,72.5,75.11-28.13,75.11-72.5,75.11-73.37-30.74-73.37-75.11Zm107.88,0c0-29-11.6-43.21-34.51-43.21s-34.51,14.21-34.51,43.21,11.6,43.5,34.51,43.5,34.51-14.5,34.51-43.5Z"/>
    <circle class="cls-1" cx="857.3" cy="19.45" r="19"/>
    <circle class="cls-2" cx="1061.3" cy="174.45" r="19"/>
  </g>
</svg>